<svg width="81" height="81" viewBox="0 0 81 81" fill="none" xmlns="http://www.w3.org/2000/svg">
<g clip-path="url(#clip0_72_624)">
<path d="M76.1263 33.9L71.4362 30.1475C71.4175 30.1325 71.3988 30.1138 71.38 30.0988L75.7462 29.225C76.33 29.1087 76.75 28.5962 76.75 28V24.25C76.75 23.56 76.19 23 75.5 23H69.25C68.56 23 68 23.56 68 24.25V26.44C67.9713 26.4013 67.9425 26.3625 67.9137 26.3238C67.835 26.1063 67.695 25.9287 67.5175 25.7875C66.8138 24.7912 66.2113 23.7937 65.8187 22.9312L63.7062 18.285C62.36 15.3212 58.755 13 55.5 13H25.5C22.245 13 18.64 15.3212 17.2938 18.285L15.1825 22.93C14.79 23.7925 14.1875 24.7912 13.4838 25.7875C13.3063 25.9287 13.1675 26.1063 13.0875 26.3238C13.0587 26.3625 13.0313 26.4 13.0013 26.44V24.25C13.0013 23.56 12.4413 23 11.7513 23H5.5C4.81 23 4.25 23.56 4.25 24.25V28C4.25 28.5962 4.67 29.1087 5.255 29.225L9.62125 30.0988C9.6025 30.1138 9.58375 30.1325 9.565 30.1475L4.87375 33.9C2.42125 35.8625 0.5 39.86 0.5 43V64.25C0.5 66.3175 2.1825 68 4.25 68H14.25C16.3175 68 18 66.3175 18 64.25V61.75H63V64.25C63 66.3175 64.6825 68 66.75 68H76.75C78.8175 68 80.5 66.3175 80.5 64.25V43C80.5 39.86 78.5788 35.8625 76.1263 33.9ZM64.7675 59.25L61.9012 56.3838C60.685 55.1675 58.47 54.25 56.75 54.25H23.625C21.905 54.25 19.69 55.1675 18.4737 56.3838L15.6075 59.25H6.75C4.6825 59.25 3 57.5675 3 55.5V49.25H4.25V50.5C4.25 53.2575 6.4925 55.5 9.25 55.5H13C13.69 55.5 14.25 54.94 14.25 54.25C14.25 53.56 13.69 53 13 53H9.25C7.87125 53 6.75 51.8787 6.75 50.5V49.25H9.25C10.2875 49.25 11.9 49.9175 12.6337 50.6512C12.8775 50.895 13.1975 51.0175 13.5175 51.0175C13.8375 51.0175 14.1575 50.895 14.4013 50.6512C14.89 50.1625 14.89 49.3725 14.4013 48.8838C13.185 47.6675 10.9712 46.75 9.25 46.75H3V43C3 42.5588 3.07 42.0825 3.16875 41.5962C3.96875 42.4312 5.1325 43 6.75 43H16.75C17.0812 43 17.3988 42.8688 17.6337 42.6338L19.25 41.0175L20.8662 42.6338C21.1 42.8688 21.4188 43 21.75 43H36.2325L39.6162 46.3838C39.86 46.6275 40.18 46.75 40.5 46.75C40.82 46.75 41.14 46.6275 41.3838 46.3838L44.7675 43H59.25C59.5812 43 59.9 42.8688 60.1338 42.6338L61.75 41.0175L63.3662 42.6338C63.6 42.8688 63.9188 43 64.25 43H74.25C75.8675 43 77.0312 42.4312 77.8313 41.5962C77.93 42.0825 78 42.5588 78 43V46.75H71.75C70.03 46.75 67.815 47.6675 66.5988 48.8838C66.11 49.3725 66.11 50.1625 66.5988 50.6512C66.8425 50.895 67.1625 51.0175 67.4825 51.0175C67.8025 51.0175 68.1225 50.895 68.3662 50.6512C69.1 49.9175 70.7125 49.25 71.75 49.25H74.25V50.5C74.25 51.8787 73.1288 53 71.75 53H68C67.31 53 66.75 53.56 66.75 54.25C66.75 54.94 67.31 55.5 68 55.5H71.75C74.5075 55.5 76.75 53.2575 76.75 50.5V49.25H78V55.5C78 57.5675 76.3175 59.25 74.25 59.25H64.7675ZM61.2325 59.25H19.1425L20.2413 58.1512C20.975 57.4175 22.5875 56.75 23.625 56.75H56.75C57.7875 56.75 59.4 57.4175 60.1338 58.1512L61.2325 59.25ZM14.95 28H66.05C67.2612 29.6012 68.645 31.1163 69.8737 32.1L71.3775 33.3025L62.5363 36.8387C62.535 36.8387 62.535 36.84 62.5337 36.84C62.3825 36.9013 62.24 36.9925 62.1175 37.115L60.8675 38.365L58.7325 40.5H44.25C43.9188 40.5 43.6 40.6312 43.3662 40.8662L40.5 43.7325L37.6338 40.8662C37.4 40.6312 37.0812 40.5 36.75 40.5H22.2675L20.1337 38.3662L18.8837 37.1162C18.7612 36.9937 18.6187 36.9025 18.4675 36.8412C18.4662 36.8412 18.4662 36.84 18.465 36.84L9.62375 33.3037L11.1275 32.1012C12.355 31.1163 13.7388 29.6012 14.95 28ZM76.6763 38.5238C76.425 39.83 75.615 40.5 74.25 40.5H64.7675L63.5175 39.25L63.7025 39.065L73.6213 35.0975L74.5638 35.8525C75.3562 36.4862 76.0875 37.45 76.6763 38.5238ZM70.5 25.5H74.25V26.975L70.5 27.725V25.5ZM17.4562 23.965L19.5675 19.32C20.51 17.2487 23.2262 15.5 25.5 15.5H55.5C57.7738 15.5 60.49 17.2488 61.4312 19.3188L63.5438 23.965C63.7638 24.4475 64.05 24.9688 64.3638 25.5H16.6362C16.95 24.9688 17.2375 24.4475 17.4562 23.965ZM6.75 25.5H10.5V27.725L6.75 26.975V25.5ZM6.435 35.8525L7.3775 35.0975L17.2975 39.065L17.4825 39.25L16.2325 40.5H6.75C5.385 40.5 4.575 39.83 4.32375 38.5238C4.9125 37.45 5.6425 36.4862 6.435 35.8525ZM14.25 65.5H4.25C3.56125 65.5 3 64.9388 3 64.25V60.4688C4.0475 61.2612 5.3375 61.75 6.75 61.75H15.5V64.25C15.5 64.9388 14.9388 65.5 14.25 65.5ZM76.75 65.5H66.75C66.0612 65.5 65.5 64.9388 65.5 64.25V61.75H74.25C75.6625 61.75 76.9525 61.2612 78 60.4688V64.25C78 64.9388 77.4388 65.5 76.75 65.5Z" fill="#007FA7"/>
</g>
<defs>
<clipPath id="clip0_72_624">
<rect width="80" height="80" fill="white" transform="translate(0.5 0.5)"/>
</clipPath>
</defs>
</svg>
