<svg width="81" height="55" viewBox="0 0 81 55" fill="none" xmlns="http://www.w3.org/2000/svg">
<path d="M76.1263 20.9L71.4362 17.1475C71.4175 17.1325 71.3988 17.1138 71.38 17.0988L75.7462 16.225C76.33 16.1087 76.75 15.5962 76.75 15V11.25C76.75 10.56 76.19 10 75.5 10H69.25C68.56 10 68 10.56 68 11.25V13.44C67.9713 13.4013 67.9425 13.3625 67.9137 13.3238C67.835 13.1063 67.695 12.9287 67.5175 12.7875C66.8138 11.7912 66.2113 10.7937 65.8187 9.93125L63.7062 5.285C62.36 2.32125 58.755 0 55.5 0H25.5C22.245 0 18.64 2.32125 17.2938 5.285L15.1825 9.93C14.79 10.7925 14.1875 11.7912 13.4838 12.7875C13.3063 12.9287 13.1675 13.1063 13.0875 13.3238C13.0587 13.3625 13.0313 13.4 13.0013 13.44V11.25C13.0013 10.56 12.4413 10 11.7513 10H5.5C4.81 10 4.25 10.56 4.25 11.25V15C4.25 15.5962 4.67 16.1087 5.255 16.225L9.62125 17.0988C9.6025 17.1138 9.58375 17.1325 9.565 17.1475L4.87375 20.9C2.42125 22.8625 0.5 26.86 0.5 30V51.25C0.5 53.3175 2.1825 55 4.25 55H14.25C16.3175 55 18 53.3175 18 51.25V48.75H63V51.25C63 53.3175 64.6825 55 66.75 55H76.75C78.8175 55 80.5 53.3175 80.5 51.25V30C80.5 26.86 78.5788 22.8625 76.1263 20.9ZM64.7675 46.25L61.9012 43.3838C60.685 42.1675 58.47 41.25 56.75 41.25H23.625C21.905 41.25 19.69 42.1675 18.4737 43.3838L15.6075 46.25H6.75C4.6825 46.25 3 44.5675 3 42.5V36.25H4.25V37.5C4.25 40.2575 6.4925 42.5 9.25 42.5H13C13.69 42.5 14.25 41.94 14.25 41.25C14.25 40.56 13.69 40 13 40H9.25C7.87125 40 6.75 38.8787 6.75 37.5V36.25H9.25C10.2875 36.25 11.9 36.9175 12.6337 37.6512C12.8775 37.895 13.1975 38.0175 13.5175 38.0175C13.8375 38.0175 14.1575 37.895 14.4013 37.6512C14.89 37.1625 14.89 36.3725 14.4013 35.8838C13.185 34.6675 10.9712 33.75 9.25 33.75H3V30C3 29.5588 3.07 29.0825 3.16875 28.5962C3.96875 29.4312 5.1325 30 6.75 30H16.75C17.0812 30 17.3988 29.8688 17.6337 29.6338L19.25 28.0175L20.8662 29.6338C21.1 29.8688 21.4188 30 21.75 30H36.2325L39.6162 33.3838C39.86 33.6275 40.18 33.75 40.5 33.75C40.82 33.75 41.14 33.6275 41.3838 33.3838L44.7675 30H59.25C59.5812 30 59.9 29.8688 60.1338 29.6338L61.75 28.0175L63.3662 29.6338C63.6 29.8688 63.9188 30 64.25 30H74.25C75.8675 30 77.0312 29.4312 77.8313 28.5962C77.93 29.0825 78 29.5588 78 30V33.75H71.75C70.03 33.75 67.815 34.6675 66.5988 35.8838C66.11 36.3725 66.11 37.1625 66.5988 37.6512C66.8425 37.895 67.1625 38.0175 67.4825 38.0175C67.8025 38.0175 68.1225 37.895 68.3662 37.6512C69.1 36.9175 70.7125 36.25 71.75 36.25H74.25V37.5C74.25 38.8787 73.1288 40 71.75 40H68C67.31 40 66.75 40.56 66.75 41.25C66.75 41.94 67.31 42.5 68 42.5H71.75C74.5075 42.5 76.75 40.2575 76.75 37.5V36.25H78V42.5C78 44.5675 76.3175 46.25 74.25 46.25H64.7675ZM61.2325 46.25H19.1425L20.2413 45.1512C20.975 44.4175 22.5875 43.75 23.625 43.75H56.75C57.7875 43.75 59.4 44.4175 60.1338 45.1512L61.2325 46.25ZM14.95 15H66.05C67.2612 16.6012 68.645 18.1163 69.8737 19.1L71.3775 20.3025L62.5363 23.8387C62.535 23.8387 62.535 23.84 62.5337 23.84C62.3825 23.9013 62.24 23.9925 62.1175 24.115L60.8675 25.365L58.7325 27.5H44.25C43.9188 27.5 43.6 27.6312 43.3662 27.8662L40.5 30.7325L37.6338 27.8662C37.4 27.6312 37.0812 27.5 36.75 27.5H22.2675L20.1337 25.3662L18.8837 24.1162C18.7612 23.9937 18.6187 23.9025 18.4675 23.8412C18.4662 23.8412 18.4662 23.84 18.465 23.84L9.62375 20.3037L11.1275 19.1012C12.355 18.1163 13.7388 16.6012 14.95 15ZM76.6763 25.5238C76.425 26.83 75.615 27.5 74.25 27.5H64.7675L63.5175 26.25L63.7025 26.065L73.6213 22.0975L74.5638 22.8525C75.3562 23.4862 76.0875 24.45 76.6763 25.5238ZM70.5 12.5H74.25V13.975L70.5 14.725V12.5ZM17.4562 10.965L19.5675 6.32C20.51 4.24875 23.2262 2.5 25.5 2.5H55.5C57.7738 2.5 60.49 4.24875 61.4312 6.31875L63.5438 10.965C63.7638 11.4475 64.05 11.9688 64.3638 12.5H16.6362C16.95 11.9688 17.2375 11.4475 17.4562 10.965ZM6.75 12.5H10.5V14.725L6.75 13.975V12.5ZM6.435 22.8525L7.3775 22.0975L17.2975 26.065L17.4825 26.25L16.2325 27.5H6.75C5.385 27.5 4.575 26.83 4.32375 25.5238C4.9125 24.45 5.6425 23.4862 6.435 22.8525ZM14.25 52.5H4.25C3.56125 52.5 3 51.9388 3 51.25V47.4688C4.0475 48.2612 5.3375 48.75 6.75 48.75H15.5V51.25C15.5 51.9388 14.9388 52.5 14.25 52.5ZM76.75 52.5H66.75C66.0612 52.5 65.5 51.9388 65.5 51.25V48.75H74.25C75.6625 48.75 76.9525 48.2612 78 47.4688V51.25C78 51.9388 77.4388 52.5 76.75 52.5Z" fill="#007FA7"/>
</svg>
