<svg width="69" height="81" viewBox="0 0 69 81" fill="none" xmlns="http://www.w3.org/2000/svg">
<path d="M68.2549 50.7261C68.1157 50.43 67.8595 50.2056 67.5476 50.107C67.0168 49.9392 54.453 46.0439 46.048 49.9931C40.9167 52.4042 38.8214 59.223 39.4356 62.8828C38.0852 63.8303 36.9305 64.7116 35.9986 65.4591C36.4247 63.3792 36.8309 61.1061 37.1847 58.6597C37.8345 54.1665 38.221 49.6554 38.3461 45.1717C38.452 44.6668 39.247 41.3137 42.1572 38.182C42.9144 38.8189 43.9222 39.3928 45.0433 39.7971C46.151 40.1967 47.2563 40.3961 48.3116 40.3961C49.426 40.3961 50.4844 40.1736 51.4302 39.7292C57.2002 37.0179 60.6219 28.7327 60.7649 28.3813C60.888 28.0784 60.8788 27.7377 60.7399 27.4417C60.6007 27.1456 60.3444 26.9212 60.0326 26.8226C59.671 26.7084 51.1083 24.054 45.3388 26.7649C41.4235 28.6048 40.1283 33.7629 40.778 36.2201C39.7833 37.2285 38.9899 38.2659 38.3588 39.2564C38.3352 38.2806 38.2995 37.3068 38.2505 36.336C37.9906 31.1963 37.3708 26.1266 36.4 21.1699C38.6108 19.7255 41.1802 15.7769 40.1703 11.9262C38.553 5.75973 31.0273 0.888942 30.7078 0.684567C30.432 0.508473 30.0948 0.455347 29.7794 0.538316C29.463 0.621285 29.1956 0.832692 29.042 1.12144C28.8637 1.45629 24.6975 9.39349 26.3148 15.5599C27.3236 19.4059 31.4911 21.5848 34.1269 21.7632C35.015 26.3324 35.5964 31.0009 35.8677 35.7321C34.9599 34.4531 33.9947 33.3159 33.0222 32.3115C33.7792 29.8146 33.0264 24.9176 29.5402 22.7173C24.1489 19.3148 15.3247 20.8923 14.9517 20.961C14.63 21.0204 14.3478 21.2115 14.1732 21.488C13.9987 21.7648 13.9478 22.1016 14.0326 22.4174C14.1311 22.7838 16.5042 31.4281 21.8953 34.8304C23.1617 35.6298 24.5939 35.9503 25.9976 35.9503C28.1764 35.9501 30.2841 35.177 31.5908 34.2228C33.2055 35.9312 34.7825 38.034 36.0394 40.575C36.1003 45.3506 35.8505 50.1776 35.2953 54.9978C34.7247 54.1686 34.035 53.384 33.2288 52.645C33.8045 48.8681 30.4272 41.1061 24.1834 39.2575C20.1251 38.0559 15.0287 38.3057 9.03527 39.9998C4.62994 41.245 1.42259 42.8137 1.28822 42.88C0.99478 43.0245 0.775092 43.285 0.68228 43.5986C0.589311 43.9122 0.631967 44.2503 0.799311 44.5314C0.87603 44.66 2.71228 47.722 5.72979 51.165C9.8348 55.8491 13.9742 58.8331 18.0322 60.0347C19.055 60.3375 20.062 60.4617 21.0272 60.4616C23.8339 60.4614 26.2803 59.4103 27.6866 58.6466C29.5703 57.6234 31.1955 56.2559 32.1906 54.9183C33.395 56.16 34.2967 57.6119 34.7183 59.3062C34.2098 62.6128 33.5881 65.6719 32.9475 68.3669C32.9434 68.3836 32.9392 68.4002 32.9358 68.4169C31.7467 73.4089 30.4952 77.1458 29.7866 78.8847C29.5419 79.4839 29.8292 80.168 30.4284 80.4127C30.5734 80.4719 30.7234 80.5 30.8709 80.5C31.333 80.5 31.7709 80.225 31.9562 79.7708C32.0502 79.541 33.5958 75.7111 35.1524 69.2575C35.8025 68.6675 37.6569 67.0416 40.432 65.0709C42.1664 67.1488 46.2053 69.2145 50.2794 69.2145C51.7669 69.2145 53.2593 68.9389 54.6447 68.288C63.0498 64.3388 68.0705 52.1809 68.2802 51.6653C68.4032 51.3628 68.394 51.0222 68.2549 50.7261ZM46.3353 28.8863C47.9121 28.1456 49.7982 27.8929 51.6385 27.8929C54.165 27.8929 56.6046 28.3693 58.0349 28.7127C56.914 30.9948 54.1747 35.8503 50.4335 37.6081C48.7133 38.4162 46.8164 37.9453 45.8385 37.5925C45.0311 37.3012 44.3714 36.9239 43.8953 36.57C44.3203 36.2299 44.7738 35.8992 45.2635 35.5842C45.8077 35.234 45.965 34.5089 45.6149 33.9646C45.2647 33.4203 44.5394 33.2632 43.9952 33.6132C43.6405 33.8414 43.3022 34.0762 42.9777 34.3159C43.1656 32.5571 44.1858 29.8963 46.3353 28.8863ZM23.2217 28.1187C23.2734 28.1401 26.4334 29.4763 29.8841 32.5629C28.3969 33.4404 25.3147 34.2176 23.1459 32.8489C19.6503 30.6428 17.5311 25.486 16.7003 23.0834C19.227 22.7993 24.7934 22.4934 28.2891 24.6995C30.2456 25.9343 30.9462 28.5929 30.9528 30.3643C27.4487 27.3595 24.3369 26.0434 24.1165 25.9524C23.5184 25.7054 22.8331 25.9901 22.5861 26.5882C22.3389 27.1863 22.6236 27.8717 23.2217 28.1187ZM35.8614 18.6057C35.1884 15.5765 34.3858 12.5921 33.4486 9.66474C33.2511 9.04833 32.5913 8.70849 31.9753 8.90599C31.3589 9.10333 31.0192 9.76302 31.2166 10.3794C32.155 13.3112 32.9561 16.3019 33.6236 19.339C31.9311 18.9357 29.2225 17.4082 28.5819 14.9654C27.5331 10.9671 29.5044 5.75208 30.5373 3.4291C32.5778 4.94614 36.8545 8.52239 37.9031 12.5207C38.51 14.8346 37.0972 17.3427 35.8614 18.6057ZM17.8809 48.4714C21.4576 49.1829 26.6844 50.6253 30.417 53.3814C29.7345 54.3601 28.3772 55.6048 26.5678 56.5875C24.9967 57.4408 21.8853 58.7319 18.6973 57.7878C11.5823 55.6814 5.53932 47.4498 3.52572 44.4406C6.85136 43.0112 16.3925 39.3957 23.518 41.5054C26.7055 42.4492 28.613 45.2259 29.4662 46.797C30.2606 48.2597 30.7131 49.7039 30.8789 50.8344C30.3956 50.5184 29.8858 50.2134 29.3492 49.9193C26.39 48.2981 22.6853 47.0375 18.3379 46.1726C17.7031 46.0462 17.0861 46.4586 16.9601 47.0934C16.8337 47.7283 17.2461 48.3451 17.8809 48.4714ZM53.6479 66.1672C52.5827 66.6678 51.431 66.8755 50.2779 66.8755C46.9707 66.8753 43.6574 65.1653 42.3671 63.7461C46.4486 61.0509 51.9597 58.0336 58.2857 56.1856C58.9069 56.0041 59.2633 55.3534 59.0819 54.7322C58.9005 54.1109 58.2497 53.7545 57.6283 53.9359C51.3004 55.7845 45.8161 58.7011 41.6608 61.3847C41.7275 58.5581 43.3811 53.8361 47.0449 52.1145C49.4783 50.9711 52.3797 50.5823 55.2013 50.5823C59.4765 50.5823 63.5688 51.4754 65.5687 51.9892C64.1084 55.0886 59.7783 63.2867 53.6479 66.1672Z" fill="#323232"/>
</svg>
