<svg width="81" height="81" viewBox="0 0 81 81" fill="none" xmlns="http://www.w3.org/2000/svg">
<g clip-path="url(#clip0_72_596)">
<path d="M74.2549 50.7261C74.1157 50.43 73.8595 50.2056 73.5476 50.107C73.0168 49.9392 60.453 46.0439 52.048 49.9931C46.9167 52.4042 44.8214 59.223 45.4356 62.8828C44.0852 63.8303 42.9305 64.7116 41.9986 65.4591C42.4247 63.3792 42.8309 61.1061 43.1847 58.6597C43.8345 54.1665 44.221 49.6554 44.3461 45.1717C44.452 44.6668 45.247 41.3137 48.1572 38.182C48.9144 38.8189 49.9222 39.3928 51.0433 39.7971C52.151 40.1967 53.2563 40.3961 54.3116 40.3961C55.426 40.3961 56.4844 40.1736 57.4302 39.7292C63.2002 37.0179 66.6219 28.7327 66.7649 28.3813C66.888 28.0784 66.8788 27.7377 66.7399 27.4417C66.6007 27.1456 66.3444 26.9212 66.0326 26.8226C65.671 26.7084 57.1083 24.054 51.3388 26.7649C47.4235 28.6048 46.1283 33.7629 46.778 36.2201C45.7833 37.2285 44.9899 38.2659 44.3588 39.2564C44.3352 38.2806 44.2995 37.3068 44.2505 36.336C43.9906 31.1963 43.3708 26.1266 42.4 21.1699C44.6108 19.7255 47.1802 15.7769 46.1703 11.9262C44.553 5.75973 37.0273 0.888942 36.7078 0.684567C36.432 0.508473 36.0948 0.455347 35.7794 0.538316C35.463 0.621285 35.1956 0.832692 35.042 1.12144C34.8637 1.45629 30.6975 9.39349 32.3148 15.5599C33.3236 19.4059 37.4911 21.5848 40.1269 21.7632C41.015 26.3324 41.5964 31.0009 41.8677 35.7321C40.9599 34.4531 39.9947 33.3159 39.0222 32.3115C39.7792 29.8146 39.0264 24.9176 35.5402 22.7173C30.1489 19.3148 21.3247 20.8923 20.9517 20.961C20.63 21.0204 20.3478 21.2115 20.1732 21.488C19.9987 21.7648 19.9478 22.1016 20.0326 22.4174C20.1311 22.7838 22.5042 31.4281 27.8953 34.8304C29.1617 35.6298 30.5939 35.9503 31.9976 35.9503C34.1764 35.9501 36.2841 35.177 37.5908 34.2228C39.2055 35.9312 40.7825 38.034 42.0394 40.575C42.1003 45.3506 41.8505 50.1776 41.2953 54.9978C40.7247 54.1686 40.035 53.384 39.2288 52.645C39.8045 48.8681 36.4272 41.1061 30.1834 39.2575C26.1251 38.0559 21.0287 38.3057 15.0353 39.9998C10.6299 41.245 7.42259 42.8137 7.28822 42.88C6.99478 43.0245 6.77509 43.285 6.68228 43.5986C6.58931 43.9122 6.63197 44.2503 6.79931 44.5314C6.87603 44.66 8.71228 47.722 11.7298 51.165C15.8348 55.8491 19.9742 58.8331 24.0322 60.0347C25.055 60.3375 26.062 60.4617 27.0272 60.4616C29.8339 60.4614 32.2803 59.4103 33.6866 58.6466C35.5703 57.6234 37.1955 56.2559 38.1906 54.9183C39.395 56.16 40.2967 57.6119 40.7183 59.3062C40.2098 62.6128 39.5881 65.6719 38.9475 68.3669C38.9434 68.3836 38.9392 68.4002 38.9358 68.4169C37.7467 73.4089 36.4952 77.1458 35.7866 78.8847C35.5419 79.4839 35.8292 80.168 36.4284 80.4127C36.5734 80.4719 36.7234 80.5 36.8709 80.5C37.333 80.5 37.7709 80.225 37.9562 79.7708C38.0502 79.541 39.5958 75.7111 41.1524 69.2575C41.8025 68.6675 43.6569 67.0416 46.432 65.0709C48.1664 67.1488 52.2053 69.2145 56.2794 69.2145C57.7669 69.2145 59.2593 68.9389 60.6447 68.288C69.0498 64.3388 74.0705 52.1809 74.2802 51.6653C74.4032 51.3628 74.394 51.0222 74.2549 50.7261ZM52.3353 28.8863C53.9121 28.1456 55.7982 27.8929 57.6385 27.8929C60.165 27.8929 62.6046 28.3693 64.0349 28.7127C62.914 30.9948 60.1747 35.8503 56.4335 37.6081C54.7133 38.4162 52.8164 37.9453 51.8385 37.5925C51.0311 37.3012 50.3714 36.9239 49.8953 36.57C50.3203 36.2299 50.7738 35.8992 51.2635 35.5842C51.8077 35.234 51.965 34.5089 51.6149 33.9646C51.2647 33.4203 50.5394 33.2632 49.9952 33.6132C49.6405 33.8414 49.3022 34.0762 48.9777 34.3159C49.1656 32.5571 50.1858 29.8963 52.3353 28.8863ZM29.2217 28.1187C29.2734 28.1401 32.4334 29.4763 35.8841 32.5629C34.3969 33.4404 31.3147 34.2176 29.1459 32.8489C25.6503 30.6428 23.5311 25.486 22.7003 23.0834C25.227 22.7993 30.7934 22.4934 34.2891 24.6995C36.2456 25.9343 36.9462 28.5929 36.9528 30.3643C33.4487 27.3595 30.3369 26.0434 30.1165 25.9524C29.5184 25.7054 28.8331 25.9901 28.5861 26.5882C28.3389 27.1863 28.6236 27.8717 29.2217 28.1187ZM41.8614 18.6057C41.1884 15.5765 40.3858 12.5921 39.4486 9.66474C39.2511 9.04833 38.5913 8.70849 37.9753 8.90599C37.3589 9.10333 37.0192 9.76302 37.2166 10.3794C38.155 13.3112 38.9561 16.3019 39.6236 19.339C37.9311 18.9357 35.2225 17.4082 34.5819 14.9654C33.5331 10.9671 35.5044 5.75208 36.5373 3.4291C38.5778 4.94614 42.8545 8.52239 43.9031 12.5207C44.51 14.8346 43.0972 17.3427 41.8614 18.6057ZM23.8809 48.4714C27.4576 49.1829 32.6844 50.6253 36.417 53.3814C35.7345 54.3601 34.3772 55.6048 32.5678 56.5875C30.9967 57.4408 27.8853 58.7319 24.6973 57.7878C17.5823 55.6814 11.5393 47.4498 9.52572 44.4406C12.8514 43.0112 22.3925 39.3957 29.518 41.5054C32.7055 42.4492 34.613 45.2259 35.4662 46.797C36.2606 48.2597 36.7131 49.7039 36.8789 50.8344C36.3956 50.5184 35.8858 50.2134 35.3492 49.9193C32.39 48.2981 28.6853 47.0375 24.3379 46.1726C23.7031 46.0462 23.0861 46.4586 22.9601 47.0934C22.8337 47.7283 23.2461 48.3451 23.8809 48.4714ZM59.6479 66.1672C58.5827 66.6678 57.431 66.8755 56.2779 66.8755C52.9707 66.8753 49.6574 65.1653 48.3671 63.7461C52.4486 61.0509 57.9597 58.0336 64.2857 56.1856C64.9069 56.0041 65.2633 55.3534 65.0819 54.7322C64.9005 54.1109 64.2497 53.7545 63.6283 53.9359C57.3004 55.7845 51.8161 58.7011 47.6608 61.3847C47.7275 58.5581 49.3811 53.8361 53.0449 52.1145C55.4783 50.9711 58.3797 50.5823 61.2013 50.5823C65.4765 50.5823 69.5688 51.4754 71.5687 51.9892C70.1084 55.0886 65.7783 63.2867 59.6479 66.1672Z" fill="#323232"/>
<path d="M19.2431 45.3976C18.4046 45.3101 17.9112 45.2809 17.8906 45.2797C17.2448 45.2415 16.6904 45.7348 16.6524 46.3808C16.6146 47.0267 17.1074 47.5812 17.7534 47.6193C17.7579 47.6195 18.2202 47.6473 18.9999 47.7286C19.0413 47.7329 19.0823 47.735 19.1229 47.735C19.7156 47.735 20.2243 47.287 20.2871 46.6845C20.3542 46.0411 19.8867 45.4648 19.2431 45.3976Z" fill="#323232"/>
<path d="M57.5217 31.7954C57.3549 31.1701 56.7127 30.7984 56.0872 30.9654C55.6024 31.0948 55.1211 31.2393 54.6567 31.3951C54.0431 31.6009 53.7125 32.2651 53.9183 32.8788C54.0827 33.369 54.5394 33.6785 55.0291 33.6785C55.1525 33.6785 55.2783 33.6588 55.4019 33.6174C55.8202 33.4771 56.2541 33.3468 56.6918 33.2299C57.3171 33.063 57.6886 32.4207 57.5217 31.7954Z" fill="#323232"/>
</g>
<defs>
<clipPath id="clip0_72_596">
<rect width="80" height="80" fill="white" transform="translate(0.5 0.5)"/>
</clipPath>
</defs>
</svg>
