<svg width="80" height="81" viewBox="0 0 80 81" fill="none" xmlns="http://www.w3.org/2000/svg">
<g clip-path="url(#clip0_72_611)">
<path d="M76.029 38.5358L73.6068 37.2231C73.4226 37.1233 73.3224 36.9136 73.3574 36.7014C73.5212 35.7098 73.6043 34.6947 73.6043 33.6844C73.6043 32.6739 73.5212 31.6589 73.3574 30.6675C73.3223 30.4551 73.4226 30.2455 73.6068 30.1456L76.029 28.8331C76.6955 28.472 77.1815 27.873 77.3973 27.1462C77.6132 26.4197 77.5332 25.6523 77.1721 24.9861L74.4805 20.0192C73.7349 18.6436 72.0091 18.1309 70.6335 18.8764L68.2088 20.1903C68.0248 20.2903 67.7962 20.2611 67.6405 20.1183C65.7654 18.3972 63.6002 17.1053 61.2049 16.2783C60.9954 16.2059 60.8546 16.0159 60.8546 15.8056V13.0533C60.8546 11.4884 59.5815 10.2155 58.0168 10.2155H52.3677C50.803 10.2155 49.5299 11.4884 49.5299 13.0533V15.8056C49.5299 16.0159 49.3891 16.2059 49.1798 16.2783C46.7843 17.1053 44.619 18.3973 42.7441 20.1183C42.5883 20.2612 42.3599 20.2901 42.1757 20.1903L39.751 18.8762C38.3752 18.1308 36.6496 18.6437 35.904 20.0194L33.2126 24.9861C32.8515 25.6525 32.7715 26.4197 32.9874 27.1462C33.0754 27.4425 33.2104 27.7159 33.3819 27.9622H18.4663C17.819 27.9622 17.2941 28.4869 17.2941 29.1344C17.2941 29.7817 17.819 30.3065 18.4663 30.3065H55.5976C55.6657 30.3065 55.7212 30.362 55.7212 30.4301V37.0625H4.82835V30.4303C4.82835 30.362 4.88382 30.3067 4.95194 30.3067H13.1526C13.7999 30.3067 14.3248 29.782 14.3248 29.1345C14.3248 28.4872 13.7999 27.9623 13.1526 27.9623H4.95194C3.59116 27.9623 2.48413 29.0694 2.48413 30.4301V38.2345C2.48413 38.2428 2.48522 38.2508 2.48538 38.2589C2.48569 38.2722 2.48663 38.2851 2.48741 38.2984C2.4896 38.3401 2.49397 38.3814 2.50054 38.4219C2.5021 38.4315 2.50319 38.4412 2.50491 38.4508C2.51444 38.5015 2.52694 38.5511 2.54272 38.5992C2.54476 38.6056 2.54741 38.6119 2.5496 38.6181C2.56476 38.6617 2.58241 38.704 2.60241 38.745C2.60647 38.7536 2.61038 38.7622 2.61476 38.7706C2.63819 38.8161 2.66413 38.8598 2.69319 38.9017C2.69788 38.9084 2.70319 38.9148 2.70804 38.9215C2.73476 38.9584 2.76366 38.9936 2.79444 39.027C2.79897 39.032 2.80241 39.0376 2.8071 39.0425L23.8948 61.2001C24.1133 61.4298 24.2337 61.7309 24.2337 62.0478V73.9231C24.2337 74.6383 24.6204 75.3012 25.2426 75.6531L33.3485 80.239C33.6558 80.413 33.9919 80.4998 34.3277 80.4997C34.6721 80.4997 35.0162 80.4084 35.3288 80.2262C35.9465 79.8661 36.3152 79.2242 36.3152 78.509V72.7973C36.3152 72.15 35.7904 71.6251 35.143 71.6251C34.4957 71.6251 33.9708 72.1498 33.9708 72.7973V77.8978L26.5777 73.7151V62.0478C26.5777 61.1265 26.2279 60.2515 25.5926 59.584L6.38976 39.4067H54.1594L51.7933 41.893C51.791 41.8955 51.7887 41.898 51.7863 41.9005L34.9562 59.5845C34.321 60.2519 33.9712 61.1269 33.9712 62.0481V67.3278C33.9712 67.9751 34.496 68.5 35.1434 68.5C35.7907 68.5 36.3155 67.9753 36.3155 67.3278V62.0481C36.3155 61.7311 36.4358 61.4301 36.6544 61.2006L47.1008 50.224C47.7762 50.5547 48.4716 50.8464 49.1796 51.0908C49.3891 51.1631 49.5299 51.3531 49.5299 51.5634V54.3158C49.5299 55.8806 50.803 57.1536 52.3677 57.1536H58.0168C59.5815 57.1536 60.8546 55.8806 60.8546 54.3158V51.5634C60.8546 51.3531 60.9954 51.1631 61.2049 51.0908C63.6005 50.2636 65.7658 48.9717 67.6405 47.2508C67.7965 47.108 68.0247 47.0792 68.209 47.1787L70.6337 48.4928C72.0093 49.2383 73.7351 48.7255 74.4807 47.3497L77.1719 42.3828C77.533 41.7164 77.613 40.9492 77.3971 40.2226C77.1813 39.4958 76.6954 38.8969 76.029 38.5358ZM75.1108 41.2659L72.4194 46.2325C72.2898 46.4719 71.9898 46.5611 71.7502 46.4315L69.3259 45.1176C68.2624 44.5414 66.948 44.7042 66.0552 45.5236C64.4188 47.0258 62.5294 48.1534 60.4398 48.875C59.2857 49.2734 58.5104 50.3539 58.5104 51.5634V54.3158C58.5104 54.588 58.289 54.8094 58.0168 54.8094H52.3677C52.0955 54.8094 51.8741 54.588 51.8741 54.3158V51.5634C51.8741 50.3539 51.0988 49.2736 49.9446 48.8748C49.5608 48.7423 49.1819 48.5922 48.808 48.4301L53.0107 44.0142C53.7249 44.1644 54.4558 44.2401 55.1923 44.2401C57.0593 44.2401 58.8946 43.7458 60.4998 42.8108C61.059 42.485 61.2484 41.7673 60.9224 41.208C60.5965 40.6486 59.879 40.4598 59.3194 40.7851C58.0723 41.5117 56.6452 41.8959 55.1923 41.8959C55.1379 41.8959 55.0837 41.8942 55.0293 41.8931L57.7421 39.0426C57.7468 39.0378 57.7502 39.0322 57.7548 39.0272C57.7855 38.9937 57.8144 38.9586 57.8412 38.9217C57.846 38.915 57.8513 38.9086 57.856 38.9019C57.8851 38.8601 57.911 38.8162 57.9344 38.7708C57.9388 38.7623 57.9426 38.7537 57.9468 38.7451C57.9668 38.704 57.9844 38.6619 57.9996 38.6183C58.0018 38.6119 58.0044 38.6058 58.0065 38.5994C58.0223 38.5512 58.0349 38.5017 58.0443 38.4509C58.0462 38.4414 58.0471 38.4317 58.0487 38.422C58.0552 38.3815 58.0596 38.3403 58.0618 38.2986C58.0626 38.2855 58.0635 38.2723 58.0638 38.259C58.064 38.2508 58.0651 38.2428 58.0651 38.2347V30.4303C58.0651 29.0695 56.958 27.9625 55.5973 27.9625H49.3033C50.8304 26.3933 52.9462 25.4733 55.1921 25.4733C59.7199 25.4733 63.4037 29.1569 63.4037 33.6847C63.4037 34.9747 63.1135 36.2087 62.5412 37.3528C62.2516 37.9317 62.486 38.6359 63.0649 38.9255C63.2333 39.0097 63.4123 39.0497 63.5885 39.0497C64.0183 39.0495 64.4323 38.8122 64.6377 38.4017C65.3744 36.9292 65.7479 35.3423 65.7479 33.6848C65.7479 27.8644 61.0126 23.1292 55.1921 23.1292C51.5949 23.1292 48.2573 24.9645 46.3207 27.9626H37.6684L35.4721 26.7723C35.3157 26.6876 35.256 26.5522 35.2343 26.4792C35.2126 26.4059 35.1887 26.2598 35.2735 26.1034L37.9649 21.1369C38.0946 20.8975 38.3949 20.8084 38.6341 20.9378L41.0585 22.2517C42.1221 22.8281 43.4365 22.6653 44.3291 21.8458C45.9657 20.3436 47.8551 19.2159 49.9448 18.4944C51.0988 18.0961 51.8741 17.0155 51.8741 15.8059V13.0533C51.8741 12.7811 52.0955 12.5597 52.3677 12.5597H58.0168C58.289 12.5597 58.5104 12.7811 58.5104 13.0533V15.8056C58.5104 17.0151 59.2857 18.0955 60.4398 18.494C62.5293 19.2156 64.4187 20.3433 66.0554 21.8455C66.9479 22.6648 68.2623 22.8278 69.3259 22.2514L71.7504 20.9376C71.9898 20.8078 72.2899 20.897 72.4196 21.1364L75.111 26.1031C75.1958 26.2595 75.1719 26.4056 75.1502 26.4789C75.1285 26.552 75.0687 26.6873 74.9123 26.7722L72.4899 28.0848C71.4276 28.6605 70.8468 29.852 71.0446 31.0498C71.1876 31.9153 71.2601 32.8017 71.2601 33.6845C71.2601 34.5673 71.1876 35.4537 71.0444 36.3194C70.8466 37.517 71.4274 38.7084 72.4898 39.2842L74.9121 40.597C75.0685 40.6817 75.1282 40.8172 75.1499 40.8901C75.1718 40.9634 75.1957 41.1095 75.1108 41.2659Z" fill="#323232"/>
<path d="M3.65607 12.3635C4.30342 12.3635 4.82826 11.8388 4.82826 11.1913V6.00971C4.82826 5.36237 4.30342 4.83752 3.65607 4.83752C3.00873 4.83752 2.48389 5.36221 2.48389 6.00971V11.1913C2.48404 11.8388 3.00873 12.3635 3.65607 12.3635Z" fill="#323232"/>
<path d="M23.2777 24.6808C23.925 24.6808 24.4498 24.1561 24.4498 23.5086V18.3269C24.4498 17.6795 23.925 17.1547 23.2777 17.1547C22.6303 17.1547 22.1055 17.6794 22.1055 18.3269V23.5086C22.1055 24.1561 22.6303 24.6808 23.2777 24.6808Z" fill="#323232"/>
<path d="M18.286 8.02578C18.9333 8.02578 19.4581 7.50109 19.4581 6.85359V1.67219C19.4581 1.02484 18.9333 0.5 18.286 0.5C17.6386 0.5 17.1138 1.02469 17.1138 1.67219V6.85375C17.1138 7.50109 17.6386 8.02578 18.286 8.02578Z" fill="#323232"/>
<path d="M42.1351 10.6168C42.7824 10.6168 43.3073 10.0921 43.3073 9.44457V4.26301C43.3073 3.61566 42.7824 3.09082 42.1351 3.09082C41.4877 3.09082 40.9629 3.61551 40.9629 4.26301V9.44457C40.963 10.0921 41.4877 10.6168 42.1351 10.6168Z" fill="#323232"/>
<path d="M12.9051 19.1393C15.104 19.1393 16.8929 17.3503 16.8929 15.1516C16.8929 12.9528 15.104 11.1639 12.9051 11.1639C10.7064 11.1639 8.91748 12.9528 8.91748 15.1516C8.91748 17.3503 10.7064 19.1393 12.9051 19.1393ZM12.9051 13.5082C13.8114 13.5082 14.5486 14.2453 14.5486 15.1516C14.5486 16.0578 13.8114 16.795 12.9051 16.795C11.9989 16.795 11.2617 16.0578 11.2617 15.1516C11.2617 14.2453 11.999 13.5082 12.9051 13.5082Z" fill="#323232"/>
<path d="M30.9497 16.0798C33.1485 16.0798 34.9374 14.2909 34.9374 12.0922C34.9374 9.89328 33.1485 8.10437 30.9497 8.10437C28.7508 8.10437 26.9619 9.89328 26.9619 12.0922C26.9621 14.2909 28.751 16.0798 30.9497 16.0798ZM30.9497 10.4486C31.856 10.4486 32.5932 11.1859 32.5932 12.0922C32.5932 12.9984 31.856 13.7356 30.9497 13.7356C30.0435 13.7356 29.3063 12.9984 29.3063 12.0922C29.3063 11.1859 30.0435 10.4486 30.9497 10.4486Z" fill="#323232"/>
</g>
<defs>
<clipPath id="clip0_72_611">
<rect width="80" height="80" fill="white" transform="translate(0 0.5)"/>
</clipPath>
</defs>
</svg>
