<svg width="81" height="80" viewBox="0 0 81 80" fill="none" xmlns="http://www.w3.org/2000/svg">
<path d="M9.4512 44.4138C14.1437 58.0338 24.26 71 40.52 71.25C56.75 71 66.855 58.0325 71.55 44.4138C77.8687 38.23 78.7675 24.2413 77.4637 18.0238C76.9575 15.605 76.1337 14.2288 74.95 13.82C73.3437 13.2638 69.0462 15.3938 66.27 21.1113C65.0805 20.5278 63.8107 20.1251 62.5025 19.9163C57.6476 19.1844 52.9259 17.7463 48.4875 15.6475C46.0061 14.3863 43.2813 13.6767 40.5 13.5675C37.7199 13.6772 34.9964 14.3867 32.5162 15.6475C28.0773 17.7464 23.3552 19.1846 18.5 19.9163C17.1917 20.1251 15.9219 20.5278 14.7325 21.1113C11.9562 15.3913 7.65995 13.2613 6.05495 13.8188C4.8687 14.2288 4.04495 15.605 3.5387 18.0238C2.23245 24.2413 3.1312 38.23 9.4512 44.4138ZM74.1775 16.25C74.48 16.6025 75.1162 17.945 75.3762 21.1525C75.7555 26.2089 75.1436 31.2907 73.575 36.1125C73.9912 30.7638 72.4212 25.65 68.3975 22.4538C70.4112 18.14 73.2337 16.4675 74.1775 16.25ZM18.9012 22.3838C23.9685 21.6107 28.8977 20.1103 33.5362 17.9288C35.698 16.8185 38.0725 16.1839 40.5 16.0675C42.9287 16.1834 45.3045 16.8181 47.4675 17.9288C52.106 20.1103 57.0352 21.6107 62.1025 22.3838C69.5775 23.5738 72.4275 31.4475 70.68 38.5338C67.25 52.6125 57.86 67.715 41.75 68.6963V30C41.75 29.6685 41.6183 29.3505 41.3838 29.1161C41.1494 28.8817 40.8315 28.75 40.5 28.75C40.1684 28.75 39.8505 28.8817 39.6161 29.1161C39.3817 29.3505 39.25 29.6685 39.25 30V68.6938C23.125 67.6938 13.75 52.6025 10.3237 38.5338C8.57495 31.4488 11.4262 23.5725 18.9012 22.3838ZM5.62495 21.15C5.8887 17.8913 6.5412 16.5588 6.80995 16.2438C7.73995 16.45 10.58 18.1188 12.6037 22.4538C8.5787 25.6513 7.0087 30.7638 7.42495 36.1125C5.85641 31.2898 5.24497 26.2071 5.62495 21.15Z" fill="#323232"/>
<path d="M23.3676 28.7337C26.502 28.2242 29.5069 27.108 32.2138 25.4475C34.7313 23.8937 37.2588 22.5 40.5001 22.5C43.7413 22.5 46.2688 23.8938 48.7913 25.45C51.4967 27.1094 54.4999 28.2248 57.6326 28.7337C57.7946 28.7602 57.9602 28.7544 58.12 28.7169C58.2798 28.6793 58.4306 28.6106 58.5639 28.5147C58.6972 28.4188 58.8102 28.2976 58.8966 28.1581C58.9831 28.0185 59.0411 27.8633 59.0676 27.7012C59.094 27.5392 59.0883 27.3736 59.0507 27.2138C59.0131 27.054 58.9444 26.9032 58.8485 26.7699C58.7526 26.6367 58.6315 26.5236 58.4919 26.4372C58.3523 26.3508 58.1971 26.2927 58.0351 26.2663C55.2236 25.8095 52.5283 24.8087 50.1001 23.32C47.3751 21.64 44.3926 20 40.5001 20C36.6076 20 33.6251 21.64 30.9051 23.3175C28.4753 24.8073 25.7783 25.8089 22.9651 26.2663C22.803 26.2927 22.6478 26.3508 22.5082 26.4372C22.3687 26.5236 22.2475 26.6367 22.1516 26.7699C22.0557 26.9032 21.987 27.054 21.9495 27.2138C21.9119 27.3736 21.9061 27.5392 21.9326 27.7012C21.959 27.8633 22.0171 28.0185 22.1035 28.1581C22.1899 28.2976 22.303 28.4188 22.4362 28.5147C22.5695 28.6106 22.7203 28.6793 22.8801 28.7169C23.0399 28.7544 23.2055 28.7602 23.3676 28.7337Z" fill="#323232"/>
<path d="M34.25 46.875C34.25 45.7625 33.9201 44.6749 33.302 43.7499C32.6839 42.8249 31.8054 42.1039 30.7776 41.6782C29.7498 41.2524 28.6188 41.141 27.5276 41.3581C26.4365 41.5751 25.4342 42.1109 24.6475 42.8975C23.8609 43.6842 23.3251 44.6865 23.1081 45.7776C22.891 46.8688 23.0024 47.9998 23.4282 49.0276C23.8539 50.0554 24.5749 50.9339 25.4999 51.552C26.4249 52.1701 27.5125 52.5 28.625 52.5C30.1163 52.4983 31.5461 51.9052 32.6007 50.8507C33.6552 49.7961 34.2483 48.3663 34.25 46.875ZM25.5 46.875C25.5 46.2569 25.6833 45.6527 26.0267 45.1388C26.37 44.6249 26.8581 44.2244 27.4291 43.9879C28.0001 43.7514 28.6285 43.6895 29.2347 43.81C29.8409 43.9306 30.3977 44.2283 30.8347 44.6653C31.2718 45.1023 31.5694 45.6592 31.69 46.2653C31.8105 46.8715 31.7486 47.4999 31.5121 48.0709C31.2756 48.6419 30.8751 49.13 30.3612 49.4733C29.8473 49.8167 29.2431 50 28.625 50C27.7962 50 27.0013 49.6708 26.4153 49.0847C25.8292 48.4987 25.5 47.7038 25.5 46.875Z" fill="#323232"/>
<path d="M17.6325 33.695L33.8825 38.695C34.0394 38.7432 34.2043 38.7601 34.3678 38.7447C34.5312 38.7292 34.69 38.6817 34.8351 38.6048C34.9802 38.528 35.1087 38.4233 35.2134 38.2968C35.318 38.1703 35.3967 38.0244 35.445 37.8675C35.4932 37.7106 35.5101 37.5457 35.4947 37.3822C35.4792 37.2188 35.4317 37.0599 35.3548 36.9149C35.278 36.7698 35.1733 36.6412 35.0468 36.5366C34.9203 36.4319 34.7744 36.3533 34.6175 36.305L18.3675 31.305C18.0506 31.2075 17.7079 31.2399 17.4149 31.3951C17.1218 31.5503 16.9025 31.8156 16.805 32.1325C16.7075 32.4494 16.7399 32.7921 16.8951 33.0851C17.0503 33.3781 17.3156 33.5975 17.6325 33.695Z" fill="#323232"/>
<path d="M34.645 58.8149L27.145 56.3149C26.8301 56.2102 26.4864 56.2348 26.1896 56.3835C25.8929 56.5321 25.6673 56.7925 25.5625 57.1075C25.4577 57.4224 25.4824 57.7661 25.631 58.0628C25.7796 58.3596 26.0401 58.5852 26.355 58.6899L33.855 61.1899C34.011 61.2418 34.1756 61.2625 34.3395 61.2507C34.5034 61.239 34.6634 61.195 34.8104 61.1214C34.9573 61.0479 35.0884 60.946 35.196 60.8218C35.3036 60.6976 35.3856 60.5534 35.4375 60.3975C35.4894 60.2415 35.51 60.0769 35.4983 59.9129C35.4865 59.749 35.4426 59.589 35.369 59.4421C35.2954 59.2951 35.1936 59.1641 35.0694 59.0565C34.9452 58.9489 34.801 58.8668 34.645 58.8149Z" fill="#323232"/>
<path d="M45.555 37.8675C45.6033 38.0244 45.682 38.1703 45.7866 38.2969C45.8912 38.4234 46.0198 38.5281 46.1649 38.6049C46.31 38.6818 46.4688 38.7293 46.6322 38.7447C46.7957 38.7602 46.9606 38.7433 47.1175 38.695L63.3675 33.695C63.5245 33.6467 63.6704 33.568 63.7969 33.4634C63.9234 33.3587 64.0281 33.2302 64.1049 33.0851C64.1817 32.94 64.2293 32.7812 64.2447 32.6178C64.2602 32.4543 64.2433 32.2894 64.195 32.1325C64.1468 31.9756 64.0681 31.8297 63.9634 31.7032C63.8588 31.5766 63.7303 31.472 63.5852 31.3951C63.4401 31.3183 63.2813 31.2708 63.1178 31.2553C62.9544 31.2398 62.7895 31.2567 62.6325 31.305L46.3825 36.305C46.2256 36.3532 46.0797 36.4319 45.9532 36.5365C45.8266 36.6412 45.7219 36.7697 45.6451 36.9148C45.5683 37.0599 45.5208 37.2187 45.5053 37.3822C45.4899 37.5457 45.5068 37.7106 45.555 37.8675Z" fill="#323232"/>
<path d="M53.855 56.3149L46.355 58.8149C46.1991 58.8668 46.0549 58.9489 45.9306 59.0565C45.8064 59.1641 45.7046 59.2951 45.631 59.4421C45.5574 59.589 45.5135 59.749 45.5017 59.9129C45.49 60.0769 45.5106 60.2415 45.5625 60.3974C45.6144 60.5534 45.6965 60.6976 45.8041 60.8218C45.9117 60.946 46.0427 61.0479 46.1896 61.1214C46.4864 61.2701 46.8301 61.2947 47.145 61.1899L54.645 58.6899C54.801 58.6381 54.9452 58.556 55.0694 58.4484C55.1936 58.3408 55.2954 58.2098 55.369 58.0628C55.4426 57.9159 55.4865 57.7559 55.4983 57.592C55.51 57.428 55.4894 57.2634 55.4375 57.1074C55.3856 56.9515 55.3036 56.8073 55.196 56.6831C55.0884 56.5589 54.9573 56.457 54.8104 56.3835C54.6634 56.3099 54.5034 56.2659 54.3395 56.2542C54.1756 56.2424 54.011 56.2631 53.855 56.3149Z" fill="#323232"/>
</svg>
