<svg width="81" height="80" viewBox="0 0 81 80" fill="none" xmlns="http://www.w3.org/2000/svg">
<g clip-path="url(#clip0_72_645)">
<path d="M78.5259 20.1466C79.6144 20.1466 80.5 19.2611 80.5 18.1725V13.6361C80.5 12.5477 79.6145 11.662 78.5259 11.662H70.4388C68.7969 7.90204 65.0444 5.26672 60.6862 5.26672H55.0312C54.3841 5.26672 53.8594 5.79141 53.8594 6.4386C53.8594 7.08579 54.3841 7.61047 55.0312 7.61047H60.6862C65.2595 7.61047 68.9802 11.3311 68.9802 15.9044C68.9802 20.4777 65.2595 24.1983 60.6862 24.1983H20.3137C15.7405 24.1983 12.0198 20.4777 12.0198 15.9044C12.0198 11.3311 15.7405 7.61047 20.3137 7.61047H49.5625C50.2097 7.61047 50.7344 7.08579 50.7344 6.4386C50.7344 5.79141 50.2097 5.26672 49.5625 5.26672H20.3137C15.9556 5.26672 12.2033 7.90219 10.5612 11.662H2.47406C1.38547 11.662 0.5 12.5475 0.5 13.6361V18.1725C0.5 19.2609 1.38547 20.1466 2.47406 20.1466H3.54688V22.45H2.47406C1.38547 22.45 0.5 23.3355 0.5 24.4239V28.9603C0.5 30.0488 1.38547 30.9344 2.47406 30.9344H3.54688V68.2183H2.33297C1.32234 68.2183 0.5 69.0406 0.5 70.0513V72.9003C0.5 73.9111 1.32234 74.7333 2.33297 74.7333H78.6669C79.6777 74.7333 80.4998 73.9109 80.4998 72.9003V70.0513C80.4998 69.0406 79.6775 68.2183 78.6669 68.2183H77.4531V30.9344H78.5259C79.6144 30.9344 80.5 30.0489 80.5 28.9603V24.4239C80.5 23.3355 79.6145 22.4498 78.5259 22.4498H77.4531V20.1464H78.5259V20.1466ZM78.1562 14.0058V17.8028H71.1508C71.2623 17.1863 71.3239 16.5525 71.3239 15.9044C71.3239 15.2563 71.2625 14.6223 71.1508 14.0059H78.1562V14.0058ZM2.84375 14.0058H9.84922C9.73766 14.6223 9.67609 15.2561 9.67609 15.9042C9.67609 16.5523 9.7375 17.1863 9.84922 17.8027H2.84375V14.0058ZM5.89062 20.1466H10.5612C10.9228 20.9747 11.3873 21.7472 11.9378 22.45H5.89062V20.1466ZM29.978 72.3895H2.84375V70.562H29.978V72.3895ZM29.978 59.5547H23C22.3528 59.5547 21.8281 60.0794 21.8281 60.7266C21.8281 61.3738 22.3528 61.8984 23 61.8984H29.978V68.2181H10.8681V61.8984H17.5312C18.1784 61.8984 18.7031 61.3738 18.7031 60.7266C18.7031 60.0794 18.1784 59.5547 17.5312 59.5547H10.8681V43.2291H29.978V59.5547ZM29.978 40.8853H10.8681V37.3519H29.978V40.8853ZM48.6783 72.3895H32.3217V43.2291H48.6783V72.3895ZM48.6783 40.8853H32.3217V37.3519H48.6783V40.8853ZM78.1562 70.562V72.3895H51.022V70.562H78.1562ZM51.022 68.2183V61.8984H70.1319V68.2181H51.022V68.2183ZM75.1094 68.2183H72.4756V53.2813C72.4756 52.6341 71.9509 52.1094 71.3037 52.1094C70.6566 52.1094 70.1319 52.6341 70.1319 53.2813V59.5547H51.022V43.2291H70.1319V47.8125C70.1319 48.4597 70.6566 48.9844 71.3037 48.9844C71.9509 48.9844 72.4756 48.4597 72.4756 47.8125V36.9822C72.4756 35.8938 71.5902 35.0081 70.5016 35.0081H51.022H29.978H10.4986C9.41 35.0081 8.52453 35.8936 8.52453 36.9822V68.2184H5.89062V30.9344H75.1094V68.2183ZM51.022 40.8853V37.3519H70.1319V40.8853H51.022ZM78.1562 28.5906H2.84375V24.7938H14.4811C16.1573 25.8973 18.1612 26.5419 20.3137 26.5419H60.6864C62.8389 26.5419 64.8428 25.8973 66.5191 24.7938H78.1562V28.5906ZM75.1094 22.45H69.0622C69.6127 21.7472 70.077 20.9747 70.4388 20.1466H75.1094V22.45Z" fill="#323232"/>
<path d="M45.3228 60.6638C45.9699 60.6638 46.4946 60.1391 46.4946 59.4919V54.1489C46.4946 53.5017 45.9699 52.9771 45.3228 52.9771C44.6756 52.9771 44.1509 53.5017 44.1509 54.1489V59.4919C44.1509 60.1391 44.6756 60.6638 45.3228 60.6638Z" fill="#323232"/>
<path d="M23.5657 22.6914H26.9516C27.77 22.6914 28.436 22.0255 28.436 21.207V19.0816H30.5614C31.3799 19.0816 32.0458 18.4156 32.0458 17.5972V14.2113C32.0458 13.3928 31.3799 12.7269 30.5614 12.7269H28.436V10.6016C28.436 9.78313 27.77 9.11719 26.9516 9.11719H23.5657C22.7472 9.11719 22.0813 9.78313 22.0813 10.6016V12.727H19.9558C19.1374 12.727 18.4714 13.393 18.4714 14.2114V17.5973C18.4714 18.4158 19.1374 19.0817 19.9558 19.0817H22.0813V21.2072C22.0813 22.0255 22.7472 22.6914 23.5657 22.6914ZM20.8153 16.7378V15.0706H22.9408C23.7592 15.0706 24.4252 14.4047 24.4252 13.5863V11.4609H26.0924V13.5864C26.0924 14.4048 26.7583 15.0708 27.5767 15.0708H29.7022V16.738H27.5766C26.7582 16.738 26.0922 17.4039 26.0922 18.2223V20.3478H24.425V18.2223C24.425 17.4039 23.7591 16.738 22.9407 16.738H20.8153V16.7378Z" fill="#323232"/>
<path d="M61.3565 13.3492H36.489C35.8418 13.3492 35.3171 13.8739 35.3171 14.5211C35.3171 15.1683 35.8418 15.693 36.489 15.693H61.3565C62.0037 15.693 62.5284 15.1683 62.5284 14.5211C62.5284 13.8739 62.0039 13.3492 61.3565 13.3492Z" fill="#323232"/>
<path d="M61.3565 17.1997H55.9016C55.2544 17.1997 54.7297 17.7244 54.7297 18.3716C54.7297 19.0188 55.2544 19.5435 55.9016 19.5435H61.3565C62.0036 19.5435 62.5283 19.0188 62.5283 18.3716C62.5283 17.7244 62.0038 17.1997 61.3565 17.1997Z" fill="#323232"/>
<path d="M16.4375 57.1094H24.5625C25.2097 57.1094 25.7344 56.5847 25.7344 55.9375V46.25C25.7344 45.6028 25.2097 45.0781 24.5625 45.0781H16.4375C15.7903 45.0781 15.2656 45.6028 15.2656 46.25V55.9375C15.2656 56.5847 15.7903 57.1094 16.4375 57.1094ZM17.6094 47.4219H23.3906V54.7656H17.6094V47.4219Z" fill="#323232"/>
</g>
<defs>
<clipPath id="clip0_72_645">
<rect width="80" height="80" fill="white" transform="translate(0.5)"/>
</clipPath>
</defs>
</svg>
