<svg width="81" height="70" viewBox="0 0 81 70" fill="none" xmlns="http://www.w3.org/2000/svg">
<path d="M78.5259 15.1466C79.6144 15.1466 80.5 14.2611 80.5 13.1725V8.6361C80.5 7.54766 79.6145 6.66204 78.5259 6.66204H70.4388C68.7969 2.90204 65.0444 0.266724 60.6862 0.266724H55.0312C54.3841 0.266724 53.8594 0.791411 53.8594 1.4386C53.8594 2.08579 54.3841 2.61047 55.0312 2.61047H60.6862C65.2595 2.61047 68.9802 6.3311 68.9802 10.9044C68.9802 15.4777 65.2595 19.1983 60.6862 19.1983H20.3137C15.7405 19.1983 12.0198 15.4777 12.0198 10.9044C12.0198 6.3311 15.7405 2.61047 20.3137 2.61047H49.5625C50.2097 2.61047 50.7344 2.08579 50.7344 1.4386C50.7344 0.791411 50.2097 0.266724 49.5625 0.266724H20.3137C15.9556 0.266724 12.2033 2.90219 10.5612 6.66204H2.47406C1.38547 6.66204 0.5 7.54751 0.5 8.6361V13.1725C0.5 14.2609 1.38547 15.1466 2.47406 15.1466H3.54688V17.45H2.47406C1.38547 17.45 0.5 18.3355 0.5 19.4239V23.9603C0.5 25.0488 1.38547 25.9344 2.47406 25.9344H3.54688V63.2183H2.33297C1.32234 63.2183 0.5 64.0406 0.5 65.0513V67.9003C0.5 68.9111 1.32234 69.7333 2.33297 69.7333H78.6669C79.6777 69.7333 80.4998 68.9109 80.4998 67.9003V65.0513C80.4998 64.0406 79.6775 63.2183 78.6669 63.2183H77.4531V25.9344H78.5259C79.6144 25.9344 80.5 25.0489 80.5 23.9603V19.4239C80.5 18.3355 79.6145 17.4498 78.5259 17.4498H77.4531V15.1464H78.5259V15.1466ZM78.1562 9.00579V12.8028H71.1508C71.2623 12.1863 71.3239 11.5525 71.3239 10.9044C71.3239 10.2563 71.2625 9.62235 71.1508 9.00594H78.1562V9.00579ZM2.84375 9.00579H9.84922C9.73766 9.62235 9.67609 10.2561 9.67609 10.9042C9.67609 11.5523 9.7375 12.1863 9.84922 12.8027H2.84375V9.00579ZM5.89062 15.1466H10.5612C10.9228 15.9747 11.3873 16.7472 11.9378 17.45H5.89062V15.1466ZM29.978 67.3895H2.84375V65.562H29.978V67.3895ZM29.978 54.5547H23C22.3528 54.5547 21.8281 55.0794 21.8281 55.7266C21.8281 56.3738 22.3528 56.8984 23 56.8984H29.978V63.2181H10.8681V56.8984H17.5312C18.1784 56.8984 18.7031 56.3738 18.7031 55.7266C18.7031 55.0794 18.1784 54.5547 17.5312 54.5547H10.8681V38.2291H29.978V54.5547ZM29.978 35.8853H10.8681V32.3519H29.978V35.8853ZM48.6783 67.3895H32.3217V38.2291H48.6783V67.3895ZM48.6783 35.8853H32.3217V32.3519H48.6783V35.8853ZM78.1562 65.562V67.3895H51.022V65.562H78.1562ZM51.022 63.2183V56.8984H70.1319V63.2181H51.022V63.2183ZM75.1094 63.2183H72.4756V48.2813C72.4756 47.6341 71.9509 47.1094 71.3037 47.1094C70.6566 47.1094 70.1319 47.6341 70.1319 48.2813V54.5547H51.022V38.2291H70.1319V42.8125C70.1319 43.4597 70.6566 43.9844 71.3037 43.9844C71.9509 43.9844 72.4756 43.4597 72.4756 42.8125V31.9822C72.4756 30.8938 71.5902 30.0081 70.5016 30.0081H51.022H29.978H10.4986C9.41 30.0081 8.52453 30.8936 8.52453 31.9822V63.2184H5.89062V25.9344H75.1094V63.2183ZM51.022 35.8853V32.3519H70.1319V35.8853H51.022ZM78.1562 23.5906H2.84375V19.7938H14.4811C16.1573 20.8973 18.1612 21.5419 20.3137 21.5419H60.6864C62.8389 21.5419 64.8428 20.8973 66.5191 19.7938H78.1562V23.5906ZM75.1094 17.45H69.0622C69.6127 16.7472 70.077 15.9747 70.4388 15.1466H75.1094V17.45Z" fill="#323232"/>
<path d="M45.3228 55.6638C45.9699 55.6638 46.4946 55.1391 46.4946 54.4919V49.1489C46.4946 48.5017 45.9699 47.9771 45.3228 47.9771C44.6756 47.9771 44.1509 48.5017 44.1509 49.1489V54.4919C44.1509 55.1391 44.6756 55.6638 45.3228 55.6638Z" fill="#323232"/>
<path d="M23.5657 17.6914H26.9516C27.77 17.6914 28.436 17.0255 28.436 16.207V14.0816H30.5614C31.3799 14.0816 32.0458 13.4156 32.0458 12.5972V9.21125C32.0458 8.39281 31.3799 7.72688 30.5614 7.72688H28.436V5.60156C28.436 4.78313 27.77 4.11719 26.9516 4.11719H23.5657C22.7472 4.11719 22.0813 4.78313 22.0813 5.60156V7.72703H19.9558C19.1374 7.72703 18.4714 8.39297 18.4714 9.21141V12.5973C18.4714 13.4158 19.1374 14.0817 19.9558 14.0817H22.0813V16.2072C22.0813 17.0255 22.7472 17.6914 23.5657 17.6914ZM20.8153 11.7378V10.0706H22.9408C23.7592 10.0706 24.4252 9.40469 24.4252 8.58625V6.46094H26.0924V8.58641C26.0924 9.40484 26.7583 10.0708 27.5767 10.0708H29.7022V11.738H27.5766C26.7582 11.738 26.0922 12.4039 26.0922 13.2223V15.3478H24.425V13.2223C24.425 12.4039 23.7591 11.738 22.9407 11.738H20.8153V11.7378Z" fill="#323232"/>
<path d="M61.3565 8.34924H36.489C35.8418 8.34924 35.3171 8.87393 35.3171 9.52112C35.3171 10.1683 35.8418 10.693 36.489 10.693H61.3565C62.0037 10.693 62.5284 10.1683 62.5284 9.52112C62.5284 8.87393 62.0039 8.34924 61.3565 8.34924Z" fill="#323232"/>
<path d="M61.3565 12.1997H55.9016C55.2544 12.1997 54.7297 12.7244 54.7297 13.3716C54.7297 14.0188 55.2544 14.5435 55.9016 14.5435H61.3565C62.0036 14.5435 62.5283 14.0188 62.5283 13.3716C62.5283 12.7244 62.0038 12.1997 61.3565 12.1997Z" fill="#323232"/>
<path d="M16.4375 52.1094H24.5625C25.2097 52.1094 25.7344 51.5847 25.7344 50.9375V41.25C25.7344 40.6028 25.2097 40.0781 24.5625 40.0781H16.4375C15.7903 40.0781 15.2656 40.6028 15.2656 41.25V50.9375C15.2656 51.5847 15.7903 52.1094 16.4375 52.1094ZM17.6094 42.4219H23.3906V49.7656H17.6094V42.4219Z" fill="#323232"/>
</svg>
