<svg width="172" height="51" viewBox="0 0 172 51" fill="none" xmlns="http://www.w3.org/2000/svg">
<path fill-rule="evenodd" clip-rule="evenodd" d="M28.8859 1.17361L4.70925 7.67819C2.04265 8.39562 0.458126 11.1401 1.17012 13.8082L7.65918 38.1246C8.37117 40.7926 11.1101 42.3739 13.7767 41.6565L23.9916 38.9082L22.6203 33.7696L18.4853 34.8821C15.2854 35.743 11.9988 33.8454 11.1444 30.6438L7.91357 18.537C7.05918 15.3353 8.9606 12.0419 12.1605 11.181L24.1772 7.948C27.3771 7.08709 30.6638 8.98464 31.5182 12.1863L31.6708 12.7582L36.7851 11.3822L35.0034 4.70552C34.2914 2.03747 31.5525 0.456174 28.8859 1.17361ZM37.7508 11.1224L35.969 4.44572C35.1146 1.24405 31.828 -0.653501 28.6281 0.207418L4.45141 6.712C1.25149 7.57292 -0.649933 10.8663 0.20446 14.068L6.69352 38.3844C7.54791 41.5861 10.8346 43.4836 14.0345 42.6227L24.2494 39.8744L26.0311 46.5511C26.8855 49.7528 30.1722 51.6504 33.3721 50.7894L57.5488 44.2849C60.7487 43.4239 62.6501 40.1306 61.7957 36.9289L55.3067 12.6125C54.4523 9.4108 51.1656 7.51325 47.9657 8.37417L37.7508 11.1224ZM37.0429 12.3484L31.9286 13.7244L33.2999 18.863L38.4142 17.487L37.0429 12.3484ZM39.3799 17.2272L38.0086 12.0886L48.2235 9.34035C50.8901 8.62292 53.629 10.2042 54.341 12.8723L60.8301 37.1887C61.5421 39.8568 59.9575 42.6012 57.2909 43.3187L33.1143 49.8232C30.4477 50.5407 27.7088 48.9594 26.9968 46.2913L25.2151 39.6146L30.3294 38.2387L30.482 38.8105C31.3364 42.0122 34.6231 43.9098 37.823 43.0488L49.8397 39.8158C53.0396 38.9549 54.941 35.6615 54.0866 32.4599L50.8558 20.3531C50.0014 17.1514 46.7148 15.2538 43.5148 16.1148L39.3799 17.2272ZM38.6721 18.4532L33.5578 19.8292L34.749 24.2931C35.6034 27.4948 33.702 30.7881 30.502 31.6491L29.6659 31.874L31.0372 37.0127L37.9533 35.1519C40.6199 34.4345 42.2044 31.69 41.4924 29.0219L38.6721 18.4532ZM31.295 37.9788L38.2111 36.1181C41.4111 35.2572 43.3125 31.9638 42.4581 28.7621L39.6377 18.1934L43.7727 17.0809C46.4393 16.3635 49.1782 17.9448 49.8902 20.6129L53.121 32.7197C53.833 35.3877 52.2484 38.1322 49.5818 38.8496L37.5651 42.0826C34.8985 42.8001 32.1597 41.2188 31.4477 38.5507L31.295 37.9788ZM30.0715 37.2725L28.7003 32.1338L23.5859 33.5098L24.9572 38.6484L30.0715 37.2725ZM23.3281 32.5436L28.4424 31.1676L27.2512 26.7037C26.3968 23.5021 28.2982 20.2087 31.4981 19.3478L32.3343 19.1228L30.963 13.9842L24.0469 15.8449C21.3803 16.5624 19.7958 19.3068 20.5078 21.9749L23.3281 32.5436ZM30.7051 13.018L30.5525 12.4461C29.8405 9.77805 27.1016 8.19676 24.435 8.91419L12.4184 12.1472C9.75176 12.8646 8.16724 15.6091 8.87923 18.2772L12.11 30.384C12.822 33.052 15.5609 34.6333 18.2275 33.9159L22.3624 32.8034L19.5421 22.2347C18.6877 19.033 20.5891 15.7397 23.789 14.8787L30.7051 13.018ZM32.5921 20.089L31.756 20.314C29.0894 21.0314 27.5049 23.7759 28.2169 26.4439L29.4081 30.9078L30.2442 30.6829C32.9108 29.9654 34.4953 27.221 33.7833 24.5529L32.5921 20.089Z" fill="black"/>
<path d="M80.0662 31.6784C76.7902 31.6784 75.1522 30.6224 75.1522 28.5104V22.9664C75.1522 20.7344 76.7902 19.6184 80.0662 19.6184C81.1822 19.6184 82.2502 19.7324 83.2702 19.9604V21.2564C82.1182 20.9684 81.0622 20.8244 80.1022 20.8244C79.6342 20.8244 79.2262 20.8544 78.8782 20.9144C78.5302 20.9624 78.1942 21.0524 77.8702 21.1844C77.1742 21.4844 76.8262 22.0724 76.8262 22.9484V28.4204C76.8262 29.7644 77.9422 30.4364 80.1742 30.4364C81.1342 30.4364 82.1902 30.2924 83.3422 30.0044V31.3364C82.3222 31.5644 81.2302 31.6784 80.0662 31.6784ZM89.9744 19.8164H91.9904L96.5264 31.4984H94.7084L93.3764 27.9524H88.3724L87.0584 31.4984H85.3304L89.9744 19.8164ZM92.9444 26.7464L90.9644 21.4724H90.8024L88.8224 26.7464H92.9444ZM99.2146 19.8164H103.319C104.351 19.8164 105.155 19.8824 105.731 20.0144C106.319 20.1344 106.745 20.3564 107.009 20.6804C107.285 21.0044 107.423 21.4784 107.423 22.1024V24.1184C107.423 24.8144 107.135 25.3544 106.559 25.7384C105.995 26.1104 105.275 26.2964 104.399 26.2964L108.143 31.4984H106.001L102.653 26.5124H100.961V31.4984H99.2146V19.8164ZM103.247 25.3604C104.111 25.3604 104.729 25.2584 105.101 25.0544C105.485 24.8384 105.677 24.4544 105.677 23.9024V22.2824C105.677 21.4064 104.921 20.9684 103.409 20.9684H100.961V25.3604H103.247ZM111.488 19.8164H115.664C116.66 19.8164 117.452 19.9184 118.04 20.1224C118.58 20.3144 118.94 20.5544 119.12 20.8424C119.312 21.1304 119.408 21.5264 119.408 22.0304V23.5964C119.408 24.0644 119.276 24.4304 119.012 24.6944C118.748 24.9464 118.346 25.1324 117.806 25.2524V25.3244C118.442 25.4324 118.952 25.6544 119.336 25.9904C119.732 26.3144 119.93 26.7224 119.93 27.2144V29.1764C119.93 30.0284 119.612 30.6284 118.976 30.9764C118.34 31.3244 117.278 31.4984 115.79 31.4984H111.488V19.8164ZM115.718 24.9284C116.45 24.9284 116.972 24.8204 117.284 24.6044C117.608 24.3764 117.77 24.0224 117.77 23.5424V22.1744C117.77 21.7304 117.608 21.4184 117.284 21.2384C116.96 21.0584 116.42 20.9684 115.664 20.9684H113.234V24.9284H115.718ZM115.79 30.2924C116.666 30.2924 117.284 30.2024 117.644 30.0224C118.004 29.8424 118.184 29.5364 118.184 29.1044V27.3404C118.184 27.0284 118.118 26.7824 117.986 26.6024C117.866 26.4104 117.674 26.2724 117.41 26.1884C117.146 26.1164 116.912 26.0744 116.708 26.0624C116.504 26.0384 116.198 26.0264 115.79 26.0264H113.234V30.2924H115.79ZM127.999 31.6784C124.735 31.6784 123.103 30.6224 123.103 28.5104V22.9844C123.103 20.7524 124.735 19.6364 127.999 19.6364C131.299 19.6364 132.949 20.7464 132.949 22.9664V28.5104C132.949 29.6384 132.493 30.4484 131.581 30.9404C130.669 31.4324 129.475 31.6784 127.999 31.6784ZM128.035 30.5084C130.183 30.5084 131.257 29.8364 131.257 28.4924V22.9304C131.257 21.4904 130.177 20.7704 128.017 20.7704C126.973 20.7704 126.169 20.9324 125.605 21.2564C125.053 21.5804 124.777 22.1384 124.777 22.9304V28.4924C124.777 29.8364 125.863 30.5084 128.035 30.5084ZM136.543 19.8164H138.649L145.003 29.4644V19.8164H146.533V31.4984H144.427L138.073 21.6884V31.4984H136.543V19.8164ZM150.451 19.8164H158.299V21.0404H152.197V24.8564H157.705V26.0804H152.197V30.2744H158.479V31.4984H150.451V19.8164ZM164.727 25.5404L160.605 19.8164H162.603L165.717 24.3344L168.831 19.8164H170.829L166.707 25.5404L171.009 31.4984H169.011L165.717 26.7464L162.423 31.4984H160.425L164.727 25.5404Z" fill="black"/>
</svg>
