<svg width="25" height="26" viewBox="0 0 25 26" fill="none" xmlns="http://www.w3.org/2000/svg">
<path d="M24.4754 22.5816V18.9686C24.49 18.378 24.2871 17.8026 23.9052 17.3518C23.5233 16.901 22.989 16.6064 22.404 16.5238C21.2477 16.3713 20.1125 16.0885 19.0198 15.6808C18.5888 15.5188 18.1203 15.4837 17.6699 15.5798C17.2195 15.6758 16.8061 15.899 16.4787 16.2228L14.9492 17.7522C11.9341 16.0378 9.43768 13.5414 7.72326 10.5263L9.25275 8.99682C9.57655 8.66938 9.7997 8.25597 9.89575 7.8056C9.9918 7.35522 9.95673 6.88675 9.7947 6.4557C9.38697 5.36305 9.10417 4.22778 8.95167 3.07155C8.86987 2.49281 8.58042 1.96356 8.13726 1.58245C7.69411 1.20133 7.12749 0.994364 6.54303 1.00012H2.93006C2.59567 1.00043 2.265 1.07037 1.95912 1.20548C1.65324 1.34059 1.37884 1.53791 1.1534 1.78488C0.927958 2.03185 0.756408 2.32305 0.649674 2.63995C0.542941 2.95685 0.503361 3.2925 0.533457 3.62554C0.928767 7.34809 2.1954 10.9252 4.23073 14.067C6.07977 16.9769 8.54681 19.4439 11.4567 21.293C14.5843 23.3212 18.1441 24.5875 21.85 24.9902C22.184 25.0204 22.5207 24.9805 22.8384 24.873C23.1561 24.7656 23.4479 24.593 23.6951 24.3662C23.9422 24.1395 24.1393 23.8636 24.2737 23.5563C24.408 23.249 24.4768 22.917 24.4754 22.5816Z" stroke="black" stroke-linecap="round" stroke-linejoin="round"/>
</svg>
