<svg width="36" height="36" viewBox="0 0 36 36" fill="none" xmlns="http://www.w3.org/2000/svg">
<path d="M15.75 12.375C15.75 11.4446 16.5071 10.6875 17.4375 10.6875H20.8125C21.7429 10.6875 22.5 11.4446 22.5 12.375V12.9375H23.625V12.375C23.625 10.8242 22.3633 9.5625 20.8125 9.5625H17.4375C15.8867 9.5625 14.625 10.8242 14.625 12.375V12.9375H15.75V12.375Z" fill="white"/>
<path d="M12.9375 17.4375H17.4375V19.6875H12.9375V17.4375Z" fill="white"/>
<path d="M8.4375 15.1875V7.3125H2.8125V15.1875H8.4375ZM4.5 9H6.75V13.5H4.5V9Z" fill="white"/>
<path d="M1.6875 1.6875H9.5625V2.8125H1.6875V1.6875Z" fill="white"/>
<path d="M9.3449 3.9375H1.90527L2.65565 6.1875H8.59452L9.3449 3.9375Z" fill="white"/>
<path d="M12.9375 20.8125H17.4375V23.0625H12.9375V20.8125Z" fill="white"/>
<path d="M17.4375 15.1875C17.4375 14.5671 16.9329 14.0625 16.3125 14.0625H14.0625C13.4421 14.0625 12.9375 14.5671 12.9375 15.1875V16.3125H17.4375V15.1875Z" fill="white"/>
<path d="M25.3125 15.1875C25.3125 14.5671 24.8079 14.0625 24.1875 14.0625H21.9375C21.3171 14.0625 20.8125 14.5671 20.8125 15.1875V16.3125H25.3125V15.1875Z" fill="white"/>
<path d="M33.1538 29.8125L32.0946 11.8125H29.7805L28.8794 27.1299L30.9376 29.0014V29.8125H33.1538Z" fill="white"/>
<path d="M20.8125 17.4375H25.3125V19.6875H20.8125V17.4375Z" fill="white"/>
<path d="M20.8125 23.0625H24.4052L25.3125 23.8877V20.8125H20.8125V23.0625Z" fill="white"/>
<path d="M3.9375 29.8125H17.4375V34.3125H3.9375V29.8125Z" fill="white"/>
<path d="M30.9375 30.9375H34.3125V34.3125H30.9375V30.9375Z" fill="white"/>
<path d="M9.5625 16.3125H1.6875V34.3125H2.8125V28.9862L9.5625 23.3618V16.3125ZM3.9375 25.3125H2.8125V24.1875H3.9375V25.3125ZM3.9375 23.0625H2.8125V21.9375H3.9375V23.0625ZM3.9375 20.8125H2.8125V19.6875H3.9375V20.8125ZM3.9375 18.5625H2.8125V17.4375H3.9375V18.5625ZM6.1875 25.3125H5.0625V24.1875H6.1875V25.3125ZM6.1875 23.0625H5.0625V21.9375H6.1875V23.0625ZM6.1875 20.8125H5.0625V19.6875H6.1875V20.8125ZM6.1875 18.5625H5.0625V17.4375H6.1875V18.5625ZM8.4375 23.0625H7.3125V21.9375H8.4375V23.0625ZM8.4375 20.8125H7.3125V19.6875H8.4375V20.8125ZM8.4375 18.5625H7.3125V17.4375H8.4375V18.5625Z" fill="white"/>
<path d="M21.9375 29.8125H26.4375V34.3125H21.9375V29.8125Z" fill="white"/>
<path d="M10.3287 24.1875L4.92871 28.6875H17.7824L22.7324 24.1875H10.3287Z" fill="white"/>
<path d="M18.5625 29.4986V34.3125H20.8125V28.6875H27.5625V34.3125H29.8125V29.4986L24.1875 24.3855L18.5625 29.4986Z" fill="white"/>
<path d="M33.1875 3.9375H31.5C31.5 2.69662 30.4909 1.6875 29.25 1.6875H28.6875V2.8125H29.25C29.8704 2.8125 30.375 3.31706 30.375 3.9375V5.0625H33.1875C33.8079 5.0625 34.3125 5.56706 34.3125 6.1875C34.3125 6.80794 33.8079 7.3125 33.1875 7.3125C32.2571 7.3125 31.5 8.06962 31.5 9V9.5625H32.625V9C32.625 8.69006 32.8776 8.4375 33.1875 8.4375C34.4284 8.4375 35.4375 7.42838 35.4375 6.1875C35.4375 4.94662 34.4284 3.9375 33.1875 3.9375Z" fill="white"/>
<path d="M23.0625 8.4375H28.6875C28.9974 8.4375 29.25 8.69006 29.25 9V9.5625H30.375V9C30.375 8.06962 29.6179 7.3125 28.6875 7.3125H23.0625C22.7526 7.3125 22.5 7.05994 22.5 6.75C22.5 6.44006 22.7526 6.1875 23.0625 6.1875H24.75H25.3125H27V5.0625H25.3125H24.75C24.1296 5.0625 23.625 4.55794 23.625 3.9375C23.625 3.31706 24.1296 2.8125 24.75 2.8125H25.3125V1.6875H24.75C23.5091 1.6875 22.5 2.69662 22.5 3.9375C22.5 4.35881 22.6238 4.74862 22.8263 5.08612C22.0078 5.20256 21.375 5.90063 21.375 6.75C21.375 7.68038 22.1321 8.4375 23.0625 8.4375Z" fill="white"/>
<path d="M26.4375 1.6875H27.5625V2.8125H26.4375V1.6875Z" fill="white"/>
</svg>
