<svg width="36" height="36" viewBox="0 0 36 36" fill="none" xmlns="http://www.w3.org/2000/svg">
<path d="M33.8203 23.3438C33.8203 22.1836 32.8711 21.2344 31.7109 21.2344C32.8711 21.2344 33.8203 20.2852 33.8203 19.125C33.8203 17.9648 32.8711 17.0156 31.7109 17.0156H23.0626C24.3492 13.1554 24.3281 11.925 24.3281 9.5625C24.3281 7.80743 22.8891 6.39844 21.1641 6.39844H20.5312C20.1305 6.39844 19.6242 6.71491 19.5187 7.2C18.4752 11.2627 16.8437 15.9247 12.7266 16.869V32.1311L16.3757 33.3421C17.4515 33.7006 18.5695 33.8906 19.7086 33.8906H29.6016C30.7666 33.8906 31.7109 32.9461 31.7109 31.7812C31.7109 30.6162 30.7666 29.6719 29.6016 29.6719H31.7109C32.8711 29.6719 33.8203 28.7227 33.8203 27.5625C33.8203 26.4023 32.8711 25.4531 31.7109 25.4531C32.8711 25.4531 33.8203 24.5039 33.8203 23.3438Z" fill="white"/>
<path d="M7.45312 14.9062H3.23438C2.65141 14.9062 2.17969 15.378 2.17969 15.9609V34.9453C2.17969 35.5283 2.65141 36 3.23438 36H7.45312C9.19786 36 10.6172 34.5807 10.6172 32.8359V18.0703C10.6172 16.3256 9.19786 14.9062 7.45312 14.9062ZM7.45312 31.7812C6.87066 31.7812 6.39844 31.309 6.39844 30.7266C6.39844 30.144 6.87066 29.6719 7.45312 29.6719C8.03559 29.6719 8.50781 30.144 8.50781 30.7266C8.50781 31.309 8.03559 31.7812 7.45312 31.7812Z" fill="white"/>
<path d="M16.689 4.65059L15.1976 3.15919C14.7856 2.74723 14.1181 2.74723 13.7062 3.15919C13.2942 3.57115 13.2942 4.23863 13.7062 4.65059L15.1976 6.14199C15.6095 6.55395 16.277 6.55395 16.689 6.14199C17.1009 5.73003 17.1009 5.06255 16.689 4.65059Z" fill="white"/>
<path d="M28.6221 3.15919C28.2101 2.74723 27.5427 2.74723 27.1307 3.15919L25.6393 4.65059C25.2273 5.06255 25.2273 5.73003 25.6393 6.14199C26.0513 6.55395 26.7187 6.55395 27.1307 6.14199L28.6221 4.65059C29.0341 4.23863 29.0341 3.57115 28.6221 3.15919Z" fill="white"/>
<path d="M21.1641 0C20.5734 0 20.1094 0.463992 20.1094 1.05469V3.23438C20.1094 3.82507 20.5734 4.28906 21.1641 4.28906C21.7548 4.28906 22.2188 3.82507 22.2188 3.23438V1.05469C22.2188 0.463992 21.7548 0 21.1641 0Z" fill="white"/>
</svg>
