<svg width="36" height="36" viewBox="0 0 36 36" fill="none" xmlns="http://www.w3.org/2000/svg">
<path d="M25.875 0.84375H20.25C19.784 0.84375 19.4062 1.22151 19.4062 1.6875V3.375C19.4062 3.84099 19.784 4.21875 20.25 4.21875H25.875C26.341 4.21875 26.7188 3.84099 26.7188 3.375V1.6875C26.7188 1.22151 26.341 0.84375 25.875 0.84375Z" fill="white"/>
<path d="M9.5625 13.2188H3.9375C3.71372 13.2188 3.49911 13.3076 3.34088 13.4659C3.18264 13.6241 3.09375 13.8387 3.09375 14.0625C3.09375 14.2863 3.18264 14.5009 3.34088 14.6591C3.49911 14.8174 3.71372 14.9062 3.9375 14.9062H9.5625C9.78628 14.9062 10.0009 14.8174 10.1591 14.6591C10.3174 14.5009 10.4062 14.2863 10.4062 14.0625C10.4062 13.8387 10.3174 13.6241 10.1591 13.4659C10.0009 13.3076 9.78628 13.2188 9.5625 13.2188Z" fill="white"/>
<path d="M9.28125 20.8125C9.28125 20.5887 9.19235 20.3741 9.03412 20.2159C8.87589 20.0576 8.66128 19.9688 8.4375 19.9688H2.8125C2.58872 19.9688 2.37411 20.0576 2.21588 20.2159C2.05764 20.3741 1.96875 20.5887 1.96875 20.8125C1.96875 21.0363 2.05764 21.2509 2.21588 21.4091C2.37411 21.5674 2.58872 21.6562 2.8125 21.6562H8.4375C8.66128 21.6562 8.87589 21.5674 9.03412 21.4091C9.19235 21.2509 9.28125 21.0363 9.28125 20.8125Z" fill="white"/>
<path d="M9 23.3438H5.0625C4.83872 23.3438 4.62411 23.4326 4.46588 23.5909C4.30764 23.7491 4.21875 23.9637 4.21875 24.1875C4.21875 24.4113 4.30764 24.6259 4.46588 24.7841C4.62411 24.9424 4.83872 25.0312 5.0625 25.0312H9C9.22378 25.0312 9.43839 24.9424 9.59662 24.7841C9.75485 24.6259 9.84375 24.4113 9.84375 24.1875C9.84375 23.9637 9.75485 23.7491 9.59662 23.5909C9.43839 23.4326 9.22378 23.3438 9 23.3438Z" fill="white"/>
<path d="M9.28125 17.4375C9.28125 17.2137 9.19236 16.9991 9.03412 16.8409C8.87589 16.6826 8.66128 16.5938 8.4375 16.5938H1.125C0.901224 16.5937 0.686612 16.6826 0.528379 16.8409C0.370145 16.9991 0.28125 17.2137 0.28125 17.4375C0.28125 17.6613 0.370145 17.8759 0.528379 18.0341C0.686612 18.1924 0.901224 18.2812 1.125 18.2812H8.4375C8.66128 18.2812 8.87589 18.1924 9.03412 18.0341C9.19236 17.8759 9.28125 17.6613 9.28125 17.4375Z" fill="white"/>
<path d="M23.0625 19.125V9.5625C17.7897 9.5625 13.5 13.8522 13.5 19.125C13.5 24.3978 17.7897 28.6875 23.0625 28.6875C28.3353 28.6875 32.625 24.3978 32.625 19.125H23.0625Z" fill="white"/>
<path d="M32.3169 10.5014L33.2216 9.5966C33.301 9.51849 33.3641 9.42543 33.4074 9.32279C33.4507 9.22015 33.4732 9.10996 33.4736 8.99858C33.4741 8.8872 33.4525 8.77683 33.41 8.67384C33.3676 8.57085 33.3052 8.47728 33.2265 8.39852C33.1477 8.31976 33.0542 8.25738 32.9512 8.21496C32.8482 8.17255 32.7378 8.15094 32.6264 8.1514C32.515 8.15185 32.4049 8.17435 32.3022 8.2176C32.1996 8.26086 32.1065 8.324 32.0284 8.4034L31.0868 9.34495C29.2734 7.85112 27.0786 6.89387 24.75 6.58125V5.0625H21.375V6.58125C19.0465 6.89375 16.8517 7.85084 15.0382 9.34453L14.0966 8.40298C14.0185 8.32358 13.9254 8.26043 13.8228 8.21718C13.7201 8.17393 13.61 8.15143 13.4986 8.15098C13.3872 8.15052 13.2768 8.17213 13.1738 8.21454C13.0709 8.25695 12.9773 8.31934 12.8985 8.3981C12.8198 8.47686 12.7574 8.57043 12.715 8.67342C12.6726 8.77641 12.6509 8.88678 12.6514 8.99816C12.6519 9.10954 12.6744 9.21972 12.7176 9.32236C12.7609 9.425 12.824 9.51807 12.9034 9.59618L13.8081 10.501C11.6202 12.8393 10.4039 15.9226 10.4063 19.125C10.4063 26.1037 16.0838 31.7812 23.0625 31.7812C30.0412 31.7812 35.7188 26.1037 35.7188 19.125C35.721 15.9228 34.5048 12.8397 32.3169 10.5014ZM23.0625 29.5312C21.0043 29.5312 18.9924 28.9209 17.2811 27.7775C15.5698 26.634 14.236 25.0088 13.4484 23.1073C12.6608 21.2058 12.4547 19.1135 12.8562 17.0948C13.2577 15.0762 14.2488 13.222 15.7042 11.7667C17.1595 10.3113 19.0137 9.32023 21.0323 8.9187C23.051 8.51718 25.1433 8.72325 27.0448 9.51088C28.9463 10.2985 30.5715 11.6323 31.715 13.3436C32.8584 15.0549 33.4688 17.0668 33.4688 19.125C33.4688 20.4916 33.1996 21.8448 32.6766 23.1073C32.1537 24.3698 31.3871 25.517 30.4208 26.4833C29.4545 27.4496 28.3073 28.2162 27.0448 28.7391C25.7823 29.2621 24.4291 29.5312 23.0625 29.5312Z" fill="white"/>
</svg>
